HIERARCHY
ROOT Hips
{
	OFFSET 0.000000 0.000000 0.000000 
	CHANNELS 6 Xposition Yposition Zposition Zrotation Yrotation Xrotation
	JOINT LeftUpLeg
	{
		OFFSET 1.363060 -1.794630 0.839290 
		CHANNELS 3 Zrotation Yrotation Xrotation
		JOINT LeftLeg
		{
			OFFSET 2.448110 -6.726130 0.000000 
			CHANNELS 3 Zrotation Yrotation Xrotation
			JOINT LeftFoot
			{
				OFFSET 2.562200 -7.039590 0.000000 
				CHANNELS 3 Zrotation Yrotation Xrotation
				JOINT LeftToeBase
				{
					OFFSET 0.157640 -0.433110 2.322550 
					CHANNELS 3 Zrotation Yrotation Xrotation
					End Site
					{
						OFFSET 0.000000 0.000000 0.000000 
					}
				}
			}
		}
	}
	JOINT RightUpLeg
	{
		OFFSET -1.305520 -1.794630 0.839290 
		CHANNELS 3 Zrotation Yrotation Xrotation
		JOINT RightLeg
		{
			OFFSET -2.542530 -6.985550 0.000000 
			CHANNELS 3 Zrotation Yrotation Xrotation
			JOINT RightFoot
			{
				OFFSET -2.568260 -7.056230 0.000000 
				CHANNELS 3 Zrotation Yrotation Xrotation
				JOINT RightToeBase
				{
					OFFSET -0.164730 -0.452590 2.363150 
					CHANNELS 3 Zrotation Yrotation Xrotation
					End Site
					{
						OFFSET 0.000000 0.000000 0.000000 
					}
				}
			}
		}
	}
	JOINT Spine
	{
		OFFSET 0.028270 2.035590 -0.193380 
		CHANNELS 3 Zrotation Yrotation Xrotation
		JOINT Spine1
		{
			OFFSET 0.056720 2.048850 -0.042750 
			CHANNELS 3 Zrotation Yrotation Xrotation
			JOINT Neck1
			{
				OFFSET -0.054170 1.746240 0.172020 
				CHANNELS 3 Zrotation Yrotation Xrotation
				JOINT Head
				{
					OFFSET 0.104070 1.761360 -0.123970 
					CHANNELS 3 Zrotation Yrotation Xrotation
					End Site
					{
						OFFSET 0.000000 0.000000 0.000000 
					}
				}
			}
			JOINT LeftArm
			{
				OFFSET 3.362410 1.200890 -0.311210 
				CHANNELS 3 Zrotation Yrotation Xrotation
				JOINT LeftForeArm
				{
					OFFSET 4.983000 -0.000000 -0.000000 
					CHANNELS 3 Zrotation Yrotation Xrotation
					JOINT LeftHand
					{
						OFFSET 3.483560 -0.000000 -0.000000 
						CHANNELS 3 Zrotation Yrotation Xrotation
						JOINT LeftHandIndex1
						{
							OFFSET 0.715260 -0.000000 -0.000000 
							CHANNELS 3 Zrotation Yrotation Xrotation
							End Site
							{
								OFFSET 0.000000 0.000000 0.000000 
							}
						}
					}
				}
			}
			JOINT RightArm
			{
				OFFSET -3.136600 1.374050 -0.404650 
				CHANNELS 3 Zrotation Yrotation Xrotation
				JOINT RightForeArm
				{
					OFFSET -5.241900 -0.000000 -0.000000 
					CHANNELS 3 Zrotation Yrotation Xrotation
					JOINT RightHand
					{
						OFFSET -3.444170 -0.000000 -0.000000 
						CHANNELS 3 Zrotation Yrotation Xrotation
						JOINT RightHandIndex1
						{
							OFFSET -0.622530 -0.000000 -0.000000 
							CHANNELS 3 Zrotation Yrotation Xrotation
							End Site
							{
								OFFSET 0.000000 0.000000 0.000000 
							}
						}
					}
				}
			}
		}
	}
}
MOTION
Frames: 10
Frame Time: 0.041667
2.782125 20.547607 -0.928504 -101.313322 84.244366 -106.482288 -86.694407 -32.423963 2.187275 15.770105 4.712282 63.574841 0.013246 -21.429664 -70.310111 3.355500 11.249400 33.125500 98.958240 16.099297 13.238319 -19.316674 -4.373006 43.917222 1.420374 21.362778 -60.404648 -0.478900 4.437800 -12.311600 -40.361743 23.932526 70.282005 22.299378 9.094005 -16.821742 -2.577460 4.451894 -56.487518 -1.741100 2.969100 -2.093300 -86.632809 -17.029815 46.394528 68.403714 -71.481272 -22.369364 11.578702 9.347197 9.268318 -7.125000 0.000000 0.000000 86.604128 16.709204 40.703352 -65.794818 66.996430 -19.881679 -4.724994 5.762232 7.644416 7.125000 0.000000 0.000000 
2.786943 20.542187 -0.944914 -98.166382 84.521261 -104.973646 -87.050789 -30.148027 3.990316 15.903203 4.695751 63.116275 0.213958 -21.045305 -70.497337 3.381100 11.287900 33.256900 98.583702 15.151228 14.000977 -19.133560 -4.490873 44.218676 1.685986 21.718271 -60.390749 -0.430100 4.208700 -11.664600 -39.885671 23.928710 71.134331 22.145890 9.182527 -17.520898 -3.250424 4.376280 -53.478837 -1.655000 3.060200 -1.592800 -87.465326 -15.289472 45.689577 65.792025 -70.558732 -20.745548 11.762245 9.203597 9.545656 -7.125000 0.000000 0.000000 86.872518 15.337445 41.396759 -64.263048 66.211309 -18.945172 -4.725084 5.886462 7.554718 7.125000 0.000000 0.000000 
2.794320 20.542789 -0.960646 -98.348863 84.788451 -104.638084 -87.097255 -30.474264 3.692874 15.871562 4.758733 63.079277 0.219686 -21.107155 -70.488106 3.415700 11.339400 33.433300 98.536645 15.806522 13.590101 -19.163653 -4.473115 44.661381 1.635678 21.524932 -60.420429 -0.285600 3.436700 -9.497100 -41.819883 24.076392 69.080535 22.893647 8.918470 -16.666763 -4.842995 3.741296 -56.776941 -1.941800 3.160600 -2.090200 -88.019340 -13.502779 44.454984 64.017039 -69.371378 -19.295398 11.975021 9.272314 9.760984 -7.125000 0.000000 0.000000 86.928972 13.884063 41.908630 -63.008163 65.070263 -18.004198 -4.712226 6.053693 7.871042 7.125000 0.000000 0.000000 
2.804030 20.536315 -0.973443 -97.463726 85.171149 -104.257831 -87.315223 -29.460949 4.404422 15.897040 4.829595 62.791779 0.319799 -21.040758 -70.548381 3.396200 11.310300 33.333700 98.295927 15.710403 13.766327 -19.182747 -4.494535 44.984682 1.633115 21.297813 -60.428155 -0.168700 2.646000 -7.294600 -43.030224 24.589165 69.048410 23.781716 9.104301 -17.372006 -5.790405 3.757838 -50.233035 -1.702700 3.251800 -1.106500 -89.175055 -11.701329 43.765086 61.755614 -68.338621 -17.860146 12.192444 9.255452 10.007980 -7.125000 0.000000 0.000000 87.272706 12.561950 42.230466 -61.517946 64.366895 -17.073790 -4.666794 6.225789 8.499211 7.125000 0.000000 0.000000 
2.812611 20.532401 -0.982099 -95.320252 85.255236 -102.410302 -87.453110 -28.736704 4.935054 15.961124 4.861521 62.586352 0.486209 -20.735003 -70.688284 3.397400 11.312200 33.340200 98.245850 16.066619 13.727329 -19.159929 -4.503103 45.337011 1.678424 21.292556 -60.394811 -0.170800 2.662400 -7.340200 -41.787379 24.117398 69.331504 23.449303 9.003492 -16.841399 -7.313701 2.947423 -54.220763 -1.954500 3.245600 -1.638100 -89.891873 -10.637493 42.954138 59.887599 -67.023805 -16.516339 12.364989 9.019758 10.261743 -7.125000 0.000000 0.000000 87.278902 11.564522 42.006816 -60.560313 63.350391 -16.279253 -4.658299 6.378302 8.851128 7.125000 0.000000 0.000000 
2.817805 20.529390 -0.992186 -95.275962 85.222947 -102.970227 -87.532599 -28.128631 5.493689 15.920343 4.861780 62.469054 0.443474 -20.947024 -70.680181 3.484900 11.441500 33.783800 98.092614 15.862254 13.953240 -19.108535 -4.575339 45.580788 1.646155 21.174902 -60.497248 -0.282600 3.418800 -9.446900 -41.482860 24.117620 70.158015 23.697688 9.085384 -17.552615 -8.593511 2.834022 -49.836441 -1.809500 3.322800 -1.001100 -90.981540 -9.075772 42.223910 58.088622 -65.900189 -15.366793 12.564942 8.747977 10.578631 -7.125000 0.000000 0.000000 87.661151 10.258311 41.951682 -59.499045 62.660969 -15.562564 -4.622545 6.540655 9.310392 7.125000 0.000000 0.000000 
2.823601 20.525551 -1.002649 -95.775798 85.235432 -103.637413 -87.618638 -27.637968 5.811050 15.853747 4.856939 62.319934 0.349029 -21.345771 -70.612424 3.559100 11.549400 34.155900 97.974622 15.995515 13.913102 -19.112909 -4.565389 45.869067 1.595784 21.028814 -60.630075 -0.391300 4.016700 -11.123700 -41.027885 23.794625 69.911843 23.794708 8.916315 -16.921007 -10.847931 1.690921 -52.548442 -2.176300 3.272900 -1.384100 -91.655364 -8.042191 41.505585 56.859865 -64.647908 -14.355547 12.764485 8.739531 10.856825 -7.125000 0.000000 0.000000 87.807118 9.218873 41.573427 -58.663379 61.739679 -14.882067 -4.611012 6.711601 9.620037 7.125000 0.000000 0.000000 
2.832860 20.523143 -1.014166 -94.974911 85.447033 -103.239310 -87.753877 -26.728749 6.410676 15.874218 4.907345 62.036336 0.425165 -21.314073 -70.657963 3.540500 11.522500 34.062900 97.788246 15.986412 14.006159 -19.092473 -4.546438 46.178420 1.669797 21.053481 -60.685126 -0.434900 4.231900 -11.730000 -41.094347 23.806954 69.946740 23.988955 8.945969 -16.936154 -11.424044 1.564153 -51.682713 -2.131800 3.294600 -1.231200 -92.429939 -6.772642 40.742112 55.676956 -63.532979 -13.444017 12.949198 8.848807 11.085418 -7.125000 0.000000 0.000000 88.011840 8.115409 41.729993 -57.657433 60.829745 -14.188203 -4.648284 6.862190 9.481842 7.125000 0.000000 0.000000 
2.841893 20.522616 -1.025833 -94.238473 85.558961 -103.107942 -87.849365 -25.689402 7.155034 15.888036 4.938874 61.747263 0.482212 -21.312925 -70.712574 3.515700 11.486500 33.938800 97.574235 15.741377 14.225940 -19.047044 -4.584854 46.448449 1.711644 21.028772 -60.747890 -0.502400 4.543900 -12.612200 -40.900971 23.687594 70.101177 24.140966 8.920523 -16.997275 -12.754642 1.150224 -51.034314 -2.180300 3.325200 -1.127600 -93.349604 -5.530118 39.811170 54.435348 -62.293970 -12.518303 13.165085 8.761709 11.476658 -7.125000 0.000000 0.000000 88.150025 7.051958 41.831257 -56.647058 59.828433 -13.465784 -4.668326 7.040839 9.621643 7.125000 0.000000 0.000000 
2.849119 20.518777 -1.035318 -94.067384 85.536657 -103.354990 -87.961235 -25.096409 7.683854 15.871209 4.957809 61.553810 0.529764 -21.380140 -70.771514 3.582800 11.583500 34.274000 97.462047 15.821336 14.285934 -19.044402 -4.617642 46.745931 1.613509 20.776169 -60.866892 -0.567900 4.826400 -13.414000 -39.895898 23.436711 70.857222 24.007581 8.949584 -17.106032 -13.662077 0.823489 -50.026422 -2.164600 3.252200 -0.996800 -94.263174 -4.618296 39.293046 53.099611 -60.867515 -11.560012 13.460551 8.629198 11.817914 -7.125000 0.000000 0.000000 88.526881 5.981845 41.053010 -55.988014 59.044901 -12.917618 -4.608065 7.238963 10.301979 7.125000 0.000000 0.000000 
